<?xml version="1.0" encoding="UTF-8" standalone="no"?><!DOCTYPE svg PUBLIC "-//W3C//DTD SVG 1.1//EN" "http://www.w3.org/Graphics/SVG/1.1/DTD/svg11.dtd"><svg width="100%" height="100%" viewBox="0 0 2040 1860" version="1.1" xmlns="http://www.w3.org/2000/svg" xmlns:xlink="http://www.w3.org/1999/xlink" xml:space="preserve" xmlns:serif="http://www.serif.com/" style="fill-rule:evenodd;clip-rule:evenodd;stroke-linecap:round;stroke-linejoin:round;stroke-miterlimit:1.5;"><g id="Filled"><rect id="base-logo-entire-solid" serif:id="base logo entire solid" x="-0" y="0" width="2039.79" height="1859.716" style="fill:none;"/><g id="base-logo-entire-solid1" serif:id="base logo entire solid"><g id="Logo-Element" serif:id="Logo Element"><path id="Base-fill---Outline" serif:id="Base fill &amp; Outline" d="M1431.348,862.92c-17.785,-33.429 -30.948,-72.56 -38.046,-115.24c-1.55,-9.322 -2.811,-18.814 -3.767,-28.453c-1.448,-14.593 -2.198,-29.524 -2.198,-44.713l0,-268.777c0,-18.404 -15.42,-33.497 -34.93,-34.781c-0.892,-0.059 -1.792,-0.089 -2.699,-0.089c-0.908,0 -1.808,0.03 -2.699,0.089l-118.852,0l-0,-199.832l0,-30.649l129.851,0c142.87,0 258.949,101.845 259.698,227.543l0,2.446l-0.003,0.404l-0.001,0.089c-0.007,0.833 -0.019,1.666 -0.036,2.497l0.04,0.008l-0,339.35c0,19.245 16.861,34.869 37.629,34.869l37.629,0l-0,230.481l-37.629,0c-20.768,0 -37.629,15.624 -37.629,34.869l-0,339.35l-0.041,0.008c0.018,0.861 0.031,1.722 0.038,2.585l0.004,0.492l0,2.446c-0.749,125.697 -116.828,227.543 -259.698,227.543l-129.851,-0l0,-30.649l-0,-199.832l119.794,0c0.582,0.025 1.168,0.037 1.758,0.037c0.589,0 1.175,-0.013 1.758,-0.037c19.953,-0.852 35.871,-16.133 35.871,-34.832l0,-268.815c0,-15.082 0.74,-29.908 2.168,-44.403c0.96,-9.745 2.231,-19.34 3.798,-28.763c7.097,-42.681 20.261,-81.811 38.046,-115.24" style="fill:#fff;stroke:#000;stroke-width:0.24px;"/><rect id="BASE-DOT" serif:id="BASE DOT" x="803.259" y="360.012" width="340.117" height="341.596" style="fill:#fff;"/><path id="Clean-base-coma" serif:id="Clean base coma" d="M802.98,1126.744l-0.019,-341.596l340.117,-0c0,0 2.12,348.896 -1.636,392.387c-2.832,32.783 -36.047,160.657 -175.008,193.369c-62.088,14.615 -163.454,6.204 -163.454,6.204l0,-80.356c0,0 21.337,2.096 45.083,0.536c32.651,-2.144 32.656,-1.905 36.439,-2.857c26.928,-6.778 62.843,-27.414 79.576,-64.078c11.77,-25.79 8.942,-103.61 8.942,-103.61l-170.04,0Z" style="fill:#fff;"/><path id="Base-fill---Outline1" serif:id="Base fill &amp; Outline" d="M506.6,863.009c17.785,33.429 30.948,72.56 38.046,115.24c1.55,9.322 2.811,18.814 3.767,28.453c1.448,14.593 2.198,29.524 2.198,44.713l-0,268.777c0,18.404 15.42,33.497 34.93,34.781c0.892,0.059 1.792,0.089 2.699,0.089c0.908,0 1.808,-0.03 2.699,-0.089l118.852,-0l0,199.832l0,30.649l-129.851,0c-142.87,0 -258.949,-101.845 -259.698,-227.543l-0,-2.446l0.003,-0.404l0.001,-0.089c0.007,-0.833 0.019,-1.666 0.036,-2.497l-0.04,-0.008l0,-339.35c-0,-19.245 -16.861,-34.869 -37.629,-34.869l-37.629,-0l0,-230.481l37.629,0c20.768,0 37.629,-15.624 37.629,-34.869l0,-339.35l0.041,-0.008c-0.018,-0.861 -0.031,-1.722 -0.038,-2.585l-0.004,-0.492l-0,-2.446c0.749,-125.697 116.828,-227.543 259.698,-227.543l129.851,0l-0,30.649l0,199.832l-119.794,-0c-0.582,-0.025 -1.168,-0.037 -1.758,-0.037c-0.589,0 -1.175,0.013 -1.758,0.037c-19.953,0.852 -35.871,16.133 -35.871,34.832l0,268.815c0,15.082 -0.74,29.908 -2.168,44.403c-0.96,9.745 -2.231,19.34 -3.798,28.763c-7.097,42.681 -20.261,81.811 -38.046,115.24" style="fill:#fff;stroke:#000;stroke-width:0.24px;"/></g><g id="typography-superscript" serif:id="typography superscript"><g id="Superscript-I" serif:id="Superscript I"><rect x="1863.876" y="202.017" width="31.118" height="341.237" style="fill:#fff;stroke:#000;stroke-width:0.24px;"/></g><g id="Superscript-A" serif:id="Superscript A"><path id="Base-A" serif:id="Base A" d="M1731.919,543.16l46.763,-341.455l0.315,-0l-0.006,-0.047l31.119,0.047l46.032,341.549l-31.119,-0.047l-7.832,-58.113l-46.2,0l-7.952,58.066l-31.119,-0Zm62.356,-228.091l-19.056,139.142l37.808,0l-18.753,-139.142Z" style="fill:#fff;stroke:#000;stroke-width:0.24px;"/></g><rect id="BASE-DOT1" serif:id="BASE DOT" x="1692.963" y="512.145" width="31.109" height="31.109" style="fill:#fff;stroke:#000;stroke-width:0.24px;"/></g></g></g></svg>