<?xml version="1.0" encoding="UTF-8" standalone="no"?><!DOCTYPE svg PUBLIC "-//W3C//DTD SVG 1.1//EN" "http://www.w3.org/Graphics/SVG/1.1/DTD/svg11.dtd"><svg width="100%" height="100%" viewBox="0 0 7479 4923" version="1.1" xmlns="http://www.w3.org/2000/svg" xmlns:xlink="http://www.w3.org/1999/xlink" xml:space="preserve" xmlns:serif="http://www.serif.com/" style="fill-rule:evenodd;clip-rule:evenodd;stroke-linecap:round;stroke-linejoin:round;stroke-miterlimit:1.5;"><g id="Filled"><rect id="base-logo-entire-solid" serif:id="base logo entire solid" x="0" y="0" width="7478.352" height="4922.992" style="fill:none;"/><g id="base-logo-entire-solid1" serif:id="base logo entire solid"><g id="Typography"><rect id="Typo-I" serif:id="Typo I" x="6285.95" y="356.608" width="376.22" height="4125.539" style="fill:#fff;stroke:#000;stroke-width:1px;"/><path id="Base-A" serif:id="Base A" d="M4407.882,4483.185l565.358,-4128.182l3.808,-0l-0.076,-0.566l376.226,0.566l556.526,4129.315l-376.226,-0.566l-94.689,-702.578l-558.559,0l-96.141,702.012l-376.226,-0Zm753.884,-2757.614l-230.382,1682.226l457.103,0l-226.721,-1682.226Z" style="fill:#fff;stroke:#000;stroke-width:1px;"/><rect id="BASE-DOT" serif:id="BASE DOT" x="3842.885" y="3973.005" width="376.226" height="376.226" style="fill:#0ff;stroke:#0ff;stroke-width:1px;"/><rect id="Typo-l-2nd" serif:id="Typo l 2nd" x="3278.099" y="358.78" width="376.22" height="4125.539" style="fill:#fff;stroke:#000;stroke-width:1px;"/><rect id="Typo-l-1st" serif:id="Typo l 1st" x="2528.735" y="358.941" width="376.22" height="4125.539" style="fill:#fff;stroke:#000;stroke-width:1px;"/><g id="Base-i" serif:id="Base i"><rect id="Dot-rectangle" serif:id="Dot rectangle" x="1773.206" y="357.662" width="376.22" height="606.166" style="fill:#fff;stroke:#000;stroke-width:1px;"/><rect id="Bottom-rectangle" serif:id="Bottom rectangle" x="1773.206" y="1398.66" width="376.22" height="3084.541" style="fill:#fff;stroke:#000;stroke-width:1px;"/></g><g id="base-J" serif:id="base J"><path d="M649.486,4605.828c0,-1.326 -0.527,-2.598 -1.464,-3.536c-0.938,-0.938 -2.209,-1.464 -3.536,-1.464c0,-45.317 -0,-383.392 -0,-383.392c0,0 52.51,-0 120.186,-0c163.549,-0 296.138,-132.572 296.16,-296.121c0.116,-902.946 0.419,-3560.408 -0.04,-3562.536l336.188,0c-0,0 -0.012,2570.138 -0.018,3711.693c-0.001,295.669 -239.689,535.355 -535.358,535.355c-105.829,0 -191.067,0 -212.118,0Z" style="fill:#fff;"/><path d="M648.993,4605.828c-0,-0.005 0.083,-2.201 -1.83,-3.617c-1.461,-1.081 -2.701,-0.747 -3.001,-1.002c-0.111,-0.094 -0.176,-0.235 -0.176,-0.381c-0.007,-382.682 -0.569,-382.896 0.117,-383.713c0.094,-0.112 0.236,-0.179 0.383,-0.179c119.738,-0.008 119.74,0.165 129.717,-0.151c158.864,-5.031 286.109,-135.39 286.129,-295.471c0.099,-783.277 0.431,-3529.014 -0.039,-3562.504c-0.006,-0.394 0.313,-0.531 0.499,-0.531c26.901,-0.001 336.122,-0.017 336.266,0.006c0.239,0.038 0.422,0.252 0.422,0.494l-0.086,3720.347c-4.623,291.931 -242.71,527.198 -535.789,527.202c-211.624,0.003 -211.692,0.279 -212.346,-0.054c-0.249,-0.127 -0.207,-0.172 -0.273,-0.446l0.007,-0Zm0.972,-0.5c210.67,-0.01 210.685,0.249 227.164,-0.221c288.207,-8.215 519.332,-244.431 519.333,-534.635l0.018,-3711.193l-335.182,-0c0.095,8.67 0.415,105.061 0.113,2898.151l-0.104,667.719c-2.066,161.419 -133.054,291.757 -294.717,292.781c-9.754,0.062 -9.764,0.001 -121.605,0.006l0,382.413c0.737,0.07 2.163,0.363 3.389,1.589c1.225,1.225 1.519,2.65 1.589,3.389Z"/></g><g id="base-J1" serif:id="base J"></g></g></g></g></svg>